<svg width="160" height="63" viewBox="0 0 980 352" fill="#7653FC" xmlns="http://www.w3.org/2000/svg"
    xmlns:xlink="http://www.w3.org/1999/xlink">
    <g id="g1">
        <g id="g2">
            <path id="path1" stroke="none"
                d="M 147.569 1.973419 C 130.529602 4.847046 102.181816 15.193085 87.443665 23.816223 C -3.134921 77.275574 -27.619558 196.010818 34.248482 280.447632 C 45.551754 295.765167 62.785191 311.851532 80.027611 323.147827 C 148.407211 368.133209 238.025421 359.694092 296.813293 302.991516 L 311.170288 289.008453 L 629.070313 288.940552 L 946.780273 288.682678 L 955.399292 284.280823 C 965.548279 279.298645 975.505615 267.03656 978.373291 256.125916 C 979.71228 251.14563 980.286072 222.035522 979.885254 171.475586 L 979.298645 94.105743 L 973.546692 84.916962 C 970.285645 79.74762 963.964111 72.859009 959.373474 69.599976 L 951.142212 63.851746 L 631.132141 63.350098 L 311.12204 63.038452 L 296.759064 49.061554 C 271.093781 24.356995 240.640472 8.853485 205.209152 2.731049 C 187.398514 -0.325134 163.648438 -0.710083 147.569 1.973419 Z M 213.256119 35.289337 C 229.347046 39.685944 253.279663 51.940826 267.272034 63.047821 C 289.685913 81.04303 309.22229 110.918869 317.07843 139.637161 C 321.682098 156.876236 321.690277 195.176208 317.093964 212.407181 C 305.992615 253.009552 277.660004 287.485596 240.123962 306.073608 C 217.146439 317.568542 203.937027 320.441376 175.967041 320.447327 C 148.007034 320.453308 134.98642 317.58609 111.814011 306.291016 C 82.890938 291.937225 60.096069 269.1521 45.729893 240.235168 C 36.155678 220.507202 32.51265 206.337967 30.977823 183.738312 C 26.552605 112.499268 75.18914 49.488892 147.185699 33.383484 C 162.504974 29.930176 196.595169 30.882935 213.256119 35.289337 Z M 945.599609 98.512894 C 949.430786 103.492126 949.621155 105.592056 949.636169 175.882065 C 949.651184 246.162064 949.46167 248.272095 945.63269 253.252914 L 941.803711 258.233704 L 637.113708 258.298798 C 347.743774 258.360626 332.613739 258.173889 333.953033 254.913589 C 339.500305 242.082382 348.494141 213.160477 350.031891 202.82016 C 355.384918 170.069016 349.827209 133.880157 333.919281 96.923599 C 332.578613 93.863892 347.708588 93.660645 637.078552 93.598816 L 941.768555 93.533752 L 945.599609 98.512894 Z" />
            <path id="path2" stroke="none"
                d="M 187.79213 63.444794 C 186.832428 64.784973 184.923767 71.105408 183.585114 77.42569 C 180.138794 94.666412 177.459854 99.637024 164.063004 114.389877 C 155.255096 124.161774 150.46666 131.43277 146.448853 141.783661 C 142.810776 150.784439 138.212448 158.635391 133.433487 163.426392 C 126.734932 170.127838 125.774986 170.518051 123.664391 167.638504 C 121.74382 164.958923 118.683739 164.579575 106.043816 164.96228 L 90.723938 165.535553 L 90.733345 209.585541 L 90.74276 253.635529 L 104.91288 254.202515 C 115.832954 254.58017 119.662834 254.009354 122.532295 251.518753 C 126.551529 247.877869 138.431732 248.835358 160.643082 255.150604 C 179.024185 260.316681 205.644226 260.500977 226.523209 255.716537 C 245.482269 251.30249 251.421188 246.331207 249.499084 236.371628 C 248.728073 231.581787 249.117401 228.521698 251.216919 226.221268 C 256.965485 219.520035 258.304474 214.919739 256.193176 208.790176 C 254.472137 203.810577 254.851746 202.090485 258.110718 197.299789 C 262.899292 190.598755 263.277924 184.278687 259.256683 178.339554 C 256.575897 174.700104 256.575714 173.740112 259.254578 168.569534 C 263.272858 160.528656 262.891266 153.058777 257.719879 146.549866 C 252.548477 140.040955 242.968079 138.123032 216.54805 137.93866 C 199.508011 137.752304 193.187592 135.833664 193.186493 130.66362 C 193.186127 128.943649 196.634552 121.662888 200.843063 114.572021 C 207.350739 103.65065 208.499954 100.020401 208.498032 91.010406 C 208.495453 78.940399 206.193893 71.670868 200.45253 65.352081 C 195.831558 60.763092 190.851349 59.804138 187.79213 63.444794 Z" />
            <path id="path3" stroke="none"
                d="M 428.918579 140.373276 L 422.601563 154.354675 L 412.831818 155.696716 C 407.281921 156.267914 399.812073 156.849533 396.172058 156.850311 L 389.472137 157.041733 L 401.924561 168.339066 L 414.186951 179.636429 L 411.130157 194.577087 C 409.411896 202.807465 408.263428 209.897705 408.643463 210.277634 C 409.413605 210.847443 421.852173 204.144806 431.62085 197.822708 C 435.070374 195.71199 437.170532 196.291534 448.661926 202.98909 C 455.942841 207.197525 462.263458 210.066162 462.833344 209.496033 C 463.403198 208.925934 462.451782 202.216125 460.530151 194.556534 L 457.267212 180.767242 L 468.754913 170.044785 C 475.263641 164.103394 480.432495 158.742279 480.432404 158.362274 C 480.432281 157.792267 473.542023 156.643768 464.921936 156.065598 L 449.411591 154.53894 L 442.89856 140.370285 C 439.446899 132.521057 436.195557 126.201736 435.815552 126.201828 C 435.235535 126.20195 432.166901 132.522614 428.918579 140.373276 Z" />
            <path id="path4" stroke="none"
                d="M 538.268494 139.96991 C 532.521423 153.761185 532.331421 153.951218 524.101746 155.292953 C 519.701904 155.863892 512.031982 156.635559 507.252075 156.826569 L 498.632111 157.018417 L 511.274689 168.895691 L 523.917236 180.762985 L 520.660278 195.123703 C 518.741943 202.974121 517.403442 209.87439 517.793457 210.254318 C 518.563599 210.824127 531.002197 204.12149 540.770874 197.799393 C 544.4104 195.498627 546.320496 196.078217 557.81189 202.775772 C 565.092773 206.984207 571.603516 210.432831 572.373535 210.432663 C 573.133545 210.432495 572.182129 203.732697 570.260376 195.493103 L 566.617188 180.743881 L 578.484863 169.821335 C 584.99353 163.689972 589.972473 158.51886 589.402405 158.138977 C 589.022278 157.759125 581.742004 156.610657 573.311829 155.652435 L 558.181458 153.935684 L 552.238525 140.146927 C 549.166931 132.48761 545.915588 126.168289 545.33551 126.168411 C 544.775513 126.178543 541.516907 132.499252 538.268494 139.96991 Z" />
            <path id="path5" stroke="none"
                d="M 647.808472 139.946518 L 642.061462 153.92778 L 626.741821 155.651031 C 618.502014 156.612808 611.232239 157.764328 610.652405 158.144455 C 610.272461 158.524536 615.053589 163.893509 621.57489 169.822144 L 633.637207 180.739548 L 630.010254 195.100342 C 628.091919 202.95076 627.143372 209.66095 627.903442 210.040787 C 628.863525 210.420593 635.182861 207.16925 642.07196 202.957748 L 654.710266 195.105072 L 667.161926 202.76239 C 674.052795 206.970932 680.373535 210.419571 681.333557 210.419357 C 682.293518 210.419159 681.522095 203.529343 679.610229 195.099747 L 676.157043 179.780487 L 687.454895 169.818054 C 693.583679 164.456757 698.752625 159.475662 698.752502 158.705643 C 698.752319 157.935623 691.662048 156.597183 683.051819 155.649002 L 667.35144 153.932327 L 661.59845 139.943573 C 658.536865 132.474243 655.275513 126.154938 654.705566 126.15506 C 654.135559 126.155182 650.876892 132.475891 647.808472 139.946518 Z" />
            <path id="path6" stroke="none"
                d="M 757.158569 140.113159 L 751.221497 153.904465 L 736.101807 155.62767 C 727.672058 156.589493 720.402283 157.740997 720.01239 158.121094 C 719.442444 158.501221 724.423584 163.670135 730.934875 169.798782 L 742.80719 180.716232 L 739.170349 195.46701 C 737.252075 203.697433 736.303528 210.407623 737.063538 210.407455 C 737.823547 210.407303 744.342773 206.955917 751.421997 202.934387 L 764.060303 195.461685 L 777.471985 203.11882 C 784.942871 207.327255 791.26355 210.585876 791.643494 210.205795 C 792.023376 209.635742 790.681946 202.735992 788.770142 194.506424 L 785.316956 179.567169 L 796.614868 169.794724 C 802.933716 164.433395 807.912659 159.452347 807.912537 158.682327 C 807.912354 157.912308 801.022034 156.573822 792.401855 155.625641 L 776.891479 153.90892 L 771.138489 139.930176 C 767.876892 132.460907 764.625549 126.141586 764.045532 126.141708 C 763.475525 126.131821 760.226868 132.45253 757.158569 140.113159 Z" />
            <path id="path7" stroke="none"
                d="M 866.698486 139.89975 L 860.001587 154.451233 L 844.491943 155.984512 C 835.872009 156.556366 828.982239 157.707855 828.982361 158.287811 C 828.982483 158.667816 834.153687 164.036713 840.664856 169.965347 L 852.157227 180.682892 L 848.910156 194.473557 C 846.99176 202.133972 846.043152 208.834183 846.613281 209.414047 C 847.183472 209.993942 853.502869 206.922592 860.781921 202.711044 C 872.270386 196.008575 874.190308 195.428177 877.82074 197.727386 C 887.592163 204.045319 900.03363 210.742645 900.803528 210.172501 C 901.183472 209.792404 900.031921 202.702667 898.31012 194.473022 L 895.236938 179.533676 L 907.494568 168.231064 L 919.9422 156.928421 L 913.242126 156.739853 C 909.602051 156.740616 902.131958 156.172211 896.771851 155.593338 L 886.811462 154.255508 L 880.108398 139.706879 L 873.595276 125.148285 L 866.698486 139.89975 Z" />
        </g>
    </g>
</svg>
